<svg width="20" height="18" viewBox="0 0 20 18" fill="none" xmlns="http://www.w3.org/2000/svg">
<path d="M18.7043 13.7734L11.9568 1.36973C10.8727 -0.455365 8.22997 -0.45779 7.14441 1.36973L0.397204 13.7734C-0.71104 15.6384 0.630709 18 2.80284 18H16.2981C18.4684 18 19.8126 15.6403 18.7043 13.7734ZM9.5506 15.7616C8.93362 15.7616 8.43139 15.2593 8.43139 14.6424C8.43139 14.0254 8.93362 13.5232 9.5506 13.5232C10.1676 13.5232 10.6698 14.0254 10.6698 14.6424C10.6698 15.2593 10.1676 15.7616 9.5506 15.7616ZM10.6698 11.2847C10.6698 11.9017 10.1676 12.4039 9.5506 12.4039C8.93362 12.4039 8.43139 11.9017 8.43139 11.2847V5.68866C8.43139 5.07168 8.93362 4.56945 9.5506 4.56945C10.1676 4.56945 10.6698 5.07168 10.6698 5.68866V11.2847Z" fill="black"/>
</svg>
