<svg width="18" height="18" viewBox="0 0 18 18" fill="none" xmlns="http://www.w3.org/2000/svg">
<path d="M9.00005 18C13.9626 18 18 13.9626 18 9.00005C18 4.03745 13.9626 -2.82366e-07 9.00005 -6.29441e-07C4.03745 -9.76516e-07 1.52582e-06 4.03736 9.83501e-07 9.00005C-9.11115e-05 13.9626 4.03736 18 9.00005 18ZM10.3868 12.512C10.3868 13.2779 9.76588 13.8988 8.99995 13.8988C8.23403 13.8988 7.61312 13.2779 7.61312 12.512L7.61312 8.99995C7.61312 8.23403 8.23403 7.61312 8.99996 7.61312C9.76588 7.61312 10.3868 8.23403 10.3868 8.99995L10.3868 12.512ZM7.62032 5.19339C7.62493 5.1481 7.63129 5.10281 7.64061 5.05844C7.64891 5.01407 7.66099 4.9697 7.67391 4.92717C7.68682 4.88372 7.7026 4.8412 7.71911 4.79959C7.73664 4.75799 7.7561 4.71639 7.77732 4.67663C7.79853 4.63687 7.82169 4.59711 7.84669 4.56012C7.87178 4.52221 7.89936 4.48522 7.92814 4.45007C7.95683 4.41492 7.98727 4.3807 8.01956 4.34934C8.05101 4.31696 8.08524 4.28643 8.12029 4.25691C8.15553 4.22914 8.19243 4.20147 8.23034 4.17647C8.26733 4.15147 8.30709 4.1284 8.34685 4.1071C8.3867 4.08579 8.42821 4.06642 8.46982 4.04889C8.51142 4.03136 8.55394 4.01651 8.59739 4.0036C8.64093 3.98976 8.68429 3.9786 8.72866 3.97029C8.77303 3.96107 8.81841 3.95369 8.86361 3.94991C8.90891 3.9453 8.9542 3.94253 8.99959 3.94253C9.04479 3.94253 9.091 3.9453 9.1363 3.94991C9.18067 3.9536 9.22596 3.96098 9.27033 3.97029C9.3147 3.9786 9.35907 3.98967 9.40252 4.0036C9.44606 4.01651 9.48859 4.03136 9.5301 4.04889C9.5717 4.06642 9.6133 4.08588 9.65306 4.1071C9.69291 4.1284 9.73175 4.15147 9.76966 4.17647C9.80749 4.20147 9.84457 4.22914 9.87879 4.25691C9.91486 4.28652 9.94816 4.31696 9.98044 4.34934C10.0129 4.38079 10.0434 4.41502 10.072 4.45007C10.1007 4.48522 10.1274 4.52221 10.1524 4.56012C10.1783 4.59711 10.2014 4.63687 10.2227 4.67663C10.244 4.71639 10.2634 4.75799 10.28 4.79959C10.2975 4.8412 10.3133 4.88372 10.3262 4.92717C10.3391 4.9697 10.3503 5.01407 10.3595 5.05844C10.3687 5.10281 10.3752 5.1481 10.3799 5.19339C10.3846 5.23869 10.3863 5.28398 10.3863 5.32927C10.3863 5.37457 10.3844 5.42078 10.3799 5.46608C10.3753 5.51045 10.3688 5.55574 10.3595 5.60011C10.3502 5.64448 10.3391 5.68885 10.3262 5.7323C10.3133 5.77482 10.2975 5.81827 10.28 5.85988C10.2634 5.90148 10.2439 5.94308 10.2227 5.98284C10.2016 6.0226 10.1784 6.06144 10.1524 6.09935C10.1273 6.13726 10.1006 6.17425 10.072 6.20848C10.0433 6.24362 10.0128 6.27785 9.98044 6.31013C9.94807 6.34159 9.91477 6.37305 9.87879 6.40164C9.84457 6.43033 9.80748 6.45708 9.76966 6.48208C9.73175 6.50708 9.69291 6.53106 9.65306 6.55237C9.6133 6.57368 9.5717 6.59305 9.5301 6.60966C9.48859 6.62719 9.44606 6.64296 9.40252 6.65587C9.35907 6.66879 9.31479 6.67995 9.27033 6.68917C9.22587 6.6984 9.18067 6.70486 9.1363 6.70956C9.0458 6.71878 8.9542 6.71878 8.86352 6.70956C8.81832 6.70495 8.77303 6.69849 8.72857 6.68917C8.68429 6.67995 8.64084 6.66879 8.5973 6.65587C8.55385 6.64296 8.51133 6.62719 8.46972 6.60966C8.42812 6.59305 8.38661 6.57359 8.34676 6.55237C8.307 6.53106 8.26733 6.50708 8.23025 6.48208C8.19234 6.45708 8.15535 6.43033 8.1202 6.40164C8.08505 6.37295 8.05083 6.34159 8.01947 6.31013C7.98709 6.27775 7.95655 6.24353 7.92805 6.20848C7.89927 6.17425 7.87169 6.13726 7.8466 6.09935C7.8216 6.06143 7.79853 6.0226 7.77722 5.98284C7.7561 5.94308 7.73664 5.90148 7.71902 5.85988C7.70241 5.81827 7.68664 5.77482 7.67382 5.7323C7.66081 5.68885 7.64873 5.64448 7.64052 5.60011C7.6312 5.55574 7.62483 5.51045 7.62022 5.46608C7.61552 5.42078 7.61284 5.37457 7.61284 5.32927C7.61284 5.28398 7.61561 5.23869 7.62032 5.19339Z" fill="white"/>
</svg>
