<svg width="18" height="18" viewBox="0 0 18 18" fill="none" xmlns="http://www.w3.org/2000/svg">
<path d="M9 0C4.02823 0 0 4.06452 0 9C0 13.9718 4.02823 18 9 18C13.9355 18 18 13.9718 18 9C18 4.06452 13.9355 0 9 0ZM9 1.74194C12.9919 1.74194 16.2581 5.00806 16.2581 9C16.2581 13.0282 12.9919 16.2581 9 16.2581C4.97177 16.2581 1.74194 13.0282 1.74194 9C1.74194 5.00806 4.97177 1.74194 9 1.74194ZM14.0806 6.49597L13.246 5.66129C13.1008 5.47984 12.8105 5.47984 12.629 5.66129L7.5121 10.7419L5.33468 8.56452C5.15323 8.38306 4.89919 8.38306 4.71774 8.56452L3.88306 9.3629C3.7379 9.54436 3.7379 9.83468 3.88306 9.97984L7.18548 13.3185C7.36694 13.5 7.62097 13.5 7.80242 13.3185L14.0806 7.1129C14.2258 6.93145 14.2258 6.64113 14.0806 6.49597Z" fill="white"/>
</svg>
