<?xml version="1.0" standalone="no"?>
<!DOCTYPE svg PUBLIC "-//W3C//DTD SVG 20010904//EN"
 "http://www.w3.org/TR/2001/REC-SVG-20010904/DTD/svg10.dtd">
<svg version="1.0" xmlns="http://www.w3.org/2000/svg"
 width="579.000000pt" height="211.000000pt" viewBox="0 0 579.000000 211.000000"
 preserveAspectRatio="xMidYMid meet">
<metadata>
Created by potrace 1.16, written by Peter Selinger 2001-2019
</metadata>
<g transform="translate(0.000000,211.000000) scale(0.100000,-0.100000)"
fill="#ffffff" stroke="none">
<path d="M904 2056 c-74 -23 -714 -397 -764 -446 -80 -78 -80 -81 -80 -565 0
-360 2 -428 16 -468 30 -88 75 -123 399 -308 363 -208 458 -253 531 -247 28 3
76 16 105 31 91 45 668 381 705 410 19 16 46 51 62 80 l27 52 0 450 0 450 -30
54 c-16 30 -46 67 -65 82 -60 46 -701 411 -748 426 -55 16 -104 16 -158 -1z
m430 -382 c176 -102 332 -196 344 -208 l24 -23 0 -398 0 -397 -23 -24 c-12
-13 -48 -38 -78 -55 -31 -17 -176 -101 -322 -185 -177 -102 -276 -154 -295
-154 -40 0 -691 376 -710 410 -20 36 -20 774 0 809 19 34 670 411 710 411 19
0 135 -61 350 -186z"/>
<path d="M660 1439 c-64 -26 -81 -110 -32 -158 25 -26 34 -28 142 -34 63 -4
144 -4 180 -1 36 3 85 1 109 -3 l44 -8 -229 -204 c-126 -112 -239 -216 -251
-230 -27 -30 -30 -79 -8 -120 23 -45 79 -55 136 -25 57 29 572 501 597 547 42
75 13 178 -63 224 -27 16 -58 18 -315 20 -174 1 -295 -2 -310 -8z"/>
<path d="M1234 830 c-63 -25 -82 -107 -38 -159 22 -26 33 -31 69 -31 65 0 100
33 100 94 0 35 -6 51 -25 70 -28 27 -75 39 -106 26z"/>
<path d="M5160 1055 l0 -635 85 0 85 0 1 368 c0 239 4 360 10 347 5 -11 62
-170 127 -354 134 -380 132 -378 221 -366 l51 7 0 629 0 629 -85 0 -85 0 0
-352 c-1 -297 -3 -349 -14 -328 -7 14 -62 165 -122 335 -70 199 -116 318 -131
333 -18 18 -33 22 -83 22 l-60 0 0 -635z"/>
<path d="M2230 1600 l0 -80 115 0 c76 0 115 -4 115 -11 0 -6 -45 -169 -99
-362 -144 -510 -150 -533 -157 -634 l-7 -93 232 0 231 0 0 85 0 85 -120 0
c-84 0 -120 3 -120 12 0 6 45 171 99 367 129 462 149 540 157 634 l6 77 -226
0 -226 0 0 -80z"/>
<path d="M2812 1133 c3 -531 4 -549 24 -593 26 -57 82 -106 136 -121 24 -6 87
-9 144 -7 91 3 105 6 143 31 55 37 87 104 100 217 12 89 16 977 5 1004 -5 13
-24 16 -100 16 l-94 0 0 -512 c0 -392 -3 -519 -13 -538 -18 -35 -81 -68 -104
-54 -47 29 -48 38 -51 587 l-3 517 -95 0 -95 0 3 -547z"/>
<path d="M3550 1050 l0 -630 85 0 85 0 1 413 1 412 82 -407 81 -408 81 0 c81
0 82 0 87 28 3 15 38 202 78 416 l74 389 3 -422 2 -421 85 0 85 0 0 630 0 630
-123 0 -123 0 -79 -427 c-43 -236 -81 -436 -84 -445 -3 -10 -44 177 -90 415
-46 238 -86 438 -89 445 -3 9 -37 12 -123 12 l-119 0 0 -630z"/>
<path d="M4570 1050 l0 -630 215 0 215 0 0 85 0 85 -115 0 -115 0 0 200 0 200
105 0 105 0 0 80 0 80 -105 0 -105 0 0 185 0 185 110 0 110 0 0 80 0 80 -210
0 -210 0 0 -630z"/>
</g>
</svg>
